PathFileType	4	(X/Y/Z)	C:/Users/opensim2020/Desktop/walking_exp_matlab/subject02_walking14_straight_03.trc																																																																																																																									
DataRate	CameraRate	NumFrames	NumMarkers	Units	OrigDataRate	OrigDataStartFrame	OrigNumFrames																																																																																																																					
100	100	4	41	mm	100	1286	127																																																																																																																					
Frame#	Time	LFHD			RFHD			LBHD			RBHD			C7			T10			CLAV			STRN			RBAK			LSHO			LUPA			LELB			LFRM			LWRA			LWRB			LFIN			RSHO			RUPA			RELB			RFRM			RWRA			RWRB			RFIN			LASI			RASI			LPSI			RPSI			LTHI			LKNE			LTIB			LANK			LHEE			LTOE			RTHI			RKNE			RTIB			RANK			RHEE			RTOE			*39			*40		
		X1	Y1	Z1	X2	Y2	Z2	X3	Y3	Z3	X4	Y4	Z4	X5	Y5	Z5	X6	Y6	Z6	X7	Y7	Z7	X8	Y8	Z8	X9	Y9	Z9	X10	Y10	Z10	X11	Y11	Z11	X12	Y12	Z12	X13	Y13	Z13	X14	Y14	Z14	X15	Y15	Z15	X16	Y16	Z16	X17	Y17	Z17	X18	Y18	Z18	X19	Y19	Z19	X20	Y20	Z20	X21	Y21	Z21	X22	Y22	Z22	X23	Y23	Z23	X24	Y24	Z24	X25	Y25	Z25	X26	Y26	Z26	X27	Y27	Z27	X28	Y28	Z28	X29	Y29	Z29	X30	Y30	Z30	X31	Y31	Z31	X32	Y32	Z32	X33	Y33	Z33	X34	Y34	Z34	X35	Y35	Z35	X36	Y36	Z36	X37	Y37	Z37	X38	Y38	Z38	X39	Y39	Z39	X40	Y40	Z40	X41	Y41	Z41
																																																																																																																												
48	0.47	-224.2198	1715.39819	1507.4093	-207.09659	1706.36536	1650.69702	-354.12393	1639.52087	1520.047	-349.87845	1629.61011	1662.97253	-398.47775	1506.37427	1610.88501	-461.04382	1237.77234	1644.62939	-263.92105	1434.33203	1578.21204	-218.27739	1260.4353	1593.36121	-448.52081	1343.6145	1702.14844	-364.69186	1466.42188	1424.26257	-433.92279	1279.39307	1347.99304	-473.84097	1148.90808	1326.63513	-502.11826	1022.54651	1299.95801	-473.60083	886.51483	1295.802	-525.79071	903.49615	1283.67273	-524.07452	841.69214	1262.53174	-289.42795	1490.39099	1776.18811	-272.18338	1319.39258	1891.92285	-222.23346	1181.76746	1928.84631	-146.24451	1085.30164	1935.68884	-58.46588	988.55103	1899.52869	-89.46278	968.27826	1943.26233	-28.80628	930.37109	1934.44922	-264.44977	966.36761	1485.40808	-243.27676	950.03833	1742.71936	-464.62622	1016.52429	1585.88721	-456.96817	1019.45459	1698.97192	-250.27829	674.40033	1418.3374	-190.7713	487.90988	1443.02502	-189.41249	294.12958	1441.84448	-114.13173	79.93325	1457.69409	-130.04971	46.21965	1514.83447	37.74466	83.15626	1419.23682	-380.1994	659.41052	1815.22375	-444.36911	456.47983	1780.06018	-526.15381	287.68481	1799.302	-588.07501	100.4369	1771.38147	-638.15302	48.54527	1723.52722	-442.82248	34.40645	1770.75366	-315.32275	1785.68591	1604.29541	2846.06104	1034.4165	-3357.28345
49	0.48	-211.04938	1713.08752	1505.42456	-193.62314	1704.44666	1648.81519	-340.77753	1637.11194	1518.48865	-336.10208	1627.54224	1661.70984	-384.90619	1503.94385	1609.74121	-447.11349	1235.52039	1643.29834	-250.05797	1432.1073	1576.64331	-204.18341	1258.32813	1591.849	-434.45639	1341.36499	1701.07605	-351.58606	1464.09412	1423.08032	-422.05878	1277.59363	1347.55762	-463.45917	1147.79346	1326.20581	-494.12909	1022.99396	1299.10938	-469.7229	885.90894	1293.23889	-521.62427	904.32483	1282.14856	-522.57184	842.76514	1260.15405	-275.35086	1488.34045	1774.56616	-257.73758	1317.60376	1890.69312	-206.42577	1180.62793	1928.2699	-128.77132	1085.21252	1933.43408	-39.41319	990.78345	1895.89172	-69.45348	969.46307	1939.70239	-7.90235	933.16895	1930.23645	-250.05353	963.44196	1483.01282	-229.60387	947.97534	1741.08264	-450.47507	1013.69147	1584.56665	-443.24661	1016.48224	1697.2688	-240.10544	669.9657	1416.33716	-176.45749	485.07022	1441.19055	-167.09329	291.61359	1439.28845	-83.2177	80.92776	1453.50354	-97.60346	46.44847	1510.81921	69.04624	89.32173	1415.19836	-371.50934	658.94415	1814.8324	-437.74484	456.94058	1779.73926	-522.9585	289.30798	1798.4707	-587.10028	102.7327	1771.11353	-637.35779	51.4345	1723.18445	-442.57175	34.26017	1770.95496	-302.15601	1783.66956	1602.51416	2845.98462	1034.29688	-3357.49268
50	0.49	-197.73874	1711.18152	1503.49829	-180.13295	1702.72009	1646.90259	-327.35736	1634.96692	1516.83398	-322.31219	1625.31873	1660.01318	-371.3468	1501.69336	1608.36194	-433.00323	1233.36621	1641.73669	-236.12657	1430.23682	1574.8916	-190.01723	1256.53992	1589.97156	-419.82816	1338.84167	1699.27722	-338.53534	1461.84351	1421.40808	-411.31729	1275.90686	1346.12109	-452.5069	1146.68799	1325.86584	-487.15213	1022.65674	1298.25134	-465.23041	885.64069	1291.05164	-517.04871	905.30658	1280.88037	-519.79211	843.97858	1258.43774	-261.40356	1486.29358	1772.56567	-243.32538	1315.89783	1889.50891	-191.2865	1179.21045	1927.44958	-111.57614	1085.28491	1931.4718	-20.54511	993.05841	1892.34045	-49.93583	970.76398	1935.97034	12.28282	935.91211	1925.93811	-235.36134	961.02661	1480.65576	-215.62791	945.99701	1739.39063	-436.06705	1011.14032	1583.04297	-429.36371	1013.74414	1695.43518	-230.53056	666.34711	1413.50024	-161.86745	482.62012	1439.23645	-146.3119	289.99002	1436.43604	-55.22718	81.75729	1450.14075	-68.76744	46.37824	1506.98962	97.08246	94.68664	1412.99548	-362.18076	658.50897	1814.29077	-430.51855	456.74292	1778.99719	-518.76221	291.17148	1798.00818	-585.69238	105.38644	1771.27661	-636.5683	55.11404	1723.32678	-442.27017	34.19885	1771.18896	-288.84631	1781.64233	1600.61182	2846.04907	1034.40955	-3357.4436
51	0.5	-184.31471	1709.56885	1501.53955	-166.56328	1701.2113	1644.88477	-313.87326	1633.20215	1515.05554	-308.95853	1623.78748	1657.95654	-357.59006	1499.71143	1606.68884	-418.87183	1231.42786	1639.95898	-222.23141	1428.63586	1572.9613	-175.65108	1255.15186	1587.9408	-406.03116	1336.73376	1697.19995	-325.04791	1460.03992	1419.87549	-399.15393	1274.24231	1345.57214	-441.51776	1145.71716	1325.33105	-479.43875	1023.40564	1297.03552	-460.5679	885.36646	1288.87439	-511.85553	906.34143	1279.85596	-516.36273	845.43909	1257.02283	-247.21695	1484.54626	1771.23352	-229.31508	1314.1676	1888.01416	-176.60286	1177.79077	1926.44434	-95.08315	1085.24878	1929.28381	-2.72237	995.15015	1888.62927	-31.21724	971.95251	1932.23926	31.56516	938.64777	1921.54468	-220.30838	959.16516	1478.48962	-201.37738	944.12732	1737.65344	-421.41391	1008.99255	1581.1499	-415.21274	1011.38239	1693.26172	-219.89067	663.92529	1410.4563	-147.04599	480.48743	1437.35938	-126.74834	288.50418	1433.96997	-30.87963	81.94289	1447.38867	-44.1302	46.32886	1503.70837	121.86693	98.78203	1412.19922	-351.9194	658.30878	1813.60364	-421.92294	456.91202	1778.66504	-513.5202	293.13287	1797.77856	-583.89313	108.53756	1771.85669	-635.65601	59.80631	1724.00598	-441.96426	34.19746	1771.51025	-275.48386	1780.00208	1598.75513	2845.24438	1034.2793	-3360.40991
